<svg width="127" height="27" viewBox="0 0 127 27" fill="none" xmlns="http://www.w3.org/2000/svg">
<path d="M16 19.5L22 13.5L16 7.5" stroke="black" stroke-width="2" stroke-linecap="round" stroke-linejoin="round"/>
<path d="M8 7.5L2 13.5L8 19.5" stroke="black" stroke-width="2" stroke-linecap="round" stroke-linejoin="round"/>
<path d="M34.64 21L30.1 6.6H32.58L36.38 18.66L40.23 6.6H42.71L38.17 21H34.64ZM47.9311 21.3C46.8378 21.3 45.8778 21.0633 45.0511 20.59C44.2244 20.1167 43.5778 19.46 43.1111 18.62C42.6511 17.78 42.4211 16.8133 42.4211 15.72C42.4211 14.54 42.6478 13.5167 43.1011 12.65C43.5544 11.7767 44.1844 11.1 44.9911 10.62C45.7978 10.14 46.7311 9.9 47.7911 9.9C48.9111 9.9 49.8611 10.1633 50.6411 10.69C51.4278 11.21 52.0111 11.9467 52.3911 12.9C52.7711 13.8533 52.9144 14.9767 52.8211 16.27H50.4311V15.39C50.4244 14.2167 50.2178 13.36 49.8111 12.82C49.4044 12.28 48.7644 12.01 47.8911 12.01C46.9044 12.01 46.1711 12.3167 45.6911 12.93C45.2111 13.5367 44.9711 14.4267 44.9711 15.6C44.9711 16.6933 45.2111 17.54 45.6911 18.14C46.1711 18.74 46.8711 19.04 47.7911 19.04C48.3844 19.04 48.8944 18.91 49.3211 18.65C49.7544 18.3833 50.0878 18 50.3211 17.5L52.7011 18.22C52.2878 19.1933 51.6478 19.95 50.7811 20.49C49.9211 21.03 48.9711 21.3 47.9311 21.3ZM44.2111 16.27V14.45H51.6411V16.27H44.2111ZM59.7423 21.3C58.629 21.3 57.679 21.0533 56.8923 20.56C56.1057 20.06 55.5023 19.38 55.0823 18.52C54.669 17.66 54.459 16.6867 54.4523 15.6C54.459 14.4933 54.6757 13.5133 55.1023 12.66C55.5357 11.8 56.149 11.1267 56.9423 10.64C57.7357 10.1467 58.679 9.9 59.7723 9.9C60.999 9.9 62.0357 10.21 62.8823 10.83C63.7357 11.4433 64.2923 12.2833 64.5523 13.35L62.1523 14C61.9657 13.42 61.6557 12.97 61.2223 12.65C60.789 12.3233 60.2957 12.16 59.7423 12.16C59.1157 12.16 58.599 12.31 58.1923 12.61C57.7857 12.9033 57.4857 13.31 57.2923 13.83C57.099 14.35 57.0023 14.94 57.0023 15.6C57.0023 16.6267 57.2323 17.4567 57.6923 18.09C58.1523 18.7233 58.8357 19.04 59.7423 19.04C60.3823 19.04 60.8857 18.8933 61.2523 18.6C61.6257 18.3067 61.9057 17.8833 62.0923 17.33L64.5523 17.88C64.219 18.98 63.6357 19.8267 62.8023 20.42C61.969 21.0067 60.949 21.3 59.7423 21.3ZM72.8863 21C72.1729 21.1333 71.4729 21.19 70.7863 21.17C70.1063 21.1567 69.4963 21.0333 68.9563 20.8C68.4163 20.56 68.0063 20.1833 67.7262 19.67C67.4796 19.2033 67.3496 18.7267 67.3363 18.24C67.3229 17.7533 67.3163 17.2033 67.3163 16.59V7.2H69.7163V16.45C69.7163 16.8833 69.7196 17.2633 69.7263 17.59C69.7396 17.9167 69.8096 18.1833 69.9363 18.39C70.1763 18.79 70.5596 19.0133 71.0863 19.06C71.6129 19.1067 72.2129 19.08 72.8863 18.98V21ZM65.3563 12.09V10.2H72.8863V12.09H65.3563ZM79.4317 21.3C78.3517 21.3 77.4084 21.0567 76.6017 20.57C75.7951 20.0833 75.1684 19.4133 74.7217 18.56C74.2817 17.7 74.0617 16.7133 74.0617 15.6C74.0617 14.4667 74.2884 13.4733 74.7417 12.62C75.1951 11.7667 75.8251 11.1 76.6317 10.62C77.4384 10.14 78.3717 9.9 79.4317 9.9C80.5184 9.9 81.4651 10.1433 82.2717 10.63C83.0784 11.1167 83.7051 11.79 84.1517 12.65C84.5984 13.5033 84.8217 14.4867 84.8217 15.6C84.8217 16.72 84.5951 17.71 84.1417 18.57C83.6951 19.4233 83.0684 20.0933 82.2617 20.58C81.4551 21.06 80.5117 21.3 79.4317 21.3ZM79.4317 19.04C80.3917 19.04 81.1051 18.72 81.5717 18.08C82.0384 17.44 82.2717 16.6133 82.2717 15.6C82.2717 14.5533 82.0351 13.72 81.5617 13.1C81.0884 12.4733 80.3784 12.16 79.4317 12.16C78.7851 12.16 78.2517 12.3067 77.8317 12.6C77.4184 12.8867 77.1117 13.29 76.9117 13.81C76.7117 14.3233 76.6117 14.92 76.6117 15.6C76.6117 16.6467 76.8484 17.4833 77.3217 18.11C77.8017 18.73 78.5051 19.04 79.4317 19.04ZM87.025 21V10.2H89.155V12.83L88.895 12.49C89.0283 12.13 89.205 11.8033 89.425 11.51C89.6517 11.21 89.9217 10.9633 90.235 10.77C90.5017 10.59 90.795 10.45 91.115 10.35C91.4417 10.2433 91.775 10.18 92.115 10.16C92.455 10.1333 92.785 10.1467 93.105 10.2V12.45C92.785 12.3567 92.415 12.3267 91.995 12.36C91.5817 12.3933 91.2083 12.51 90.875 12.71C90.5417 12.89 90.2683 13.12 90.055 13.4C89.8483 13.68 89.695 14 89.595 14.36C89.495 14.7133 89.445 15.0967 89.445 15.51V21H87.025ZM101.103 21.3C99.6633 21.3 98.4299 20.9867 97.4033 20.36C96.3766 19.7267 95.5866 18.8467 95.0333 17.72C94.4866 16.5933 94.2133 15.2867 94.2133 13.8C94.2133 12.3133 94.4866 11.0067 95.0333 9.88C95.5866 8.75333 96.3766 7.87667 97.4033 7.25C98.4299 6.61667 99.6633 6.3 101.103 6.3C102.763 6.3 104.147 6.71667 105.253 7.55C106.36 8.37667 107.137 9.49333 107.583 10.9L105.153 11.57C104.873 10.63 104.397 9.89667 103.723 9.37C103.05 8.83667 102.177 8.57 101.103 8.57C100.137 8.57 99.3299 8.78667 98.6833 9.22C98.0433 9.65333 97.5599 10.2633 97.2333 11.05C96.9133 11.83 96.7499 12.7467 96.7433 13.8C96.7433 14.8533 96.9033 15.7733 97.2233 16.56C97.5499 17.34 98.0366 17.9467 98.6833 18.38C99.3299 18.8133 100.137 19.03 101.103 19.03C102.177 19.03 103.05 18.7633 103.723 18.23C104.397 17.6967 104.873 16.9633 105.153 16.03L107.583 16.7C107.137 18.1067 106.36 19.2267 105.253 20.06C104.147 20.8867 102.763 21.3 101.103 21.3ZM117.249 21V15.8C117.249 15.46 117.226 15.0833 117.179 14.67C117.132 14.2567 117.022 13.86 116.849 13.48C116.682 13.0933 116.429 12.7767 116.089 12.53C115.756 12.2833 115.302 12.16 114.729 12.16C114.422 12.16 114.119 12.21 113.819 12.31C113.519 12.41 113.246 12.5833 112.999 12.83C112.759 13.07 112.566 13.4033 112.419 13.83C112.272 14.25 112.199 14.79 112.199 15.45L110.769 14.84C110.769 13.92 110.946 13.0867 111.299 12.34C111.659 11.5933 112.186 11 112.879 10.56C113.572 10.1133 114.426 9.89 115.439 9.89C116.239 9.89 116.899 10.0233 117.419 10.29C117.939 10.5567 118.352 10.8967 118.659 11.31C118.966 11.7233 119.192 12.1633 119.339 12.63C119.486 13.0967 119.579 13.54 119.619 13.96C119.666 14.3733 119.689 14.71 119.689 14.97V21H117.249ZM109.759 21V6.6H111.909V14.18H112.199V21H109.759ZM122.498 8.56V6.35H124.908V8.56H122.498ZM122.498 21V10.2H124.908V21H122.498Z" fill="black"/>
</svg>
